<!DOCTYPE svg PUBLIC "-//W3C//DTD SVG 1.1//EN" "http://www.w3.org/Graphics/SVG/1.1/DTD/svg11.dtd">
<!-- Uploaded to: SVG Repo, www.svgrepo.com, Transformed by: SVG Repo Mixer Tools -->
<svg fill="#5caeda" version="1.1" id="Layer_1" xmlns="http://www.w3.org/2000/svg" xmlns:xlink="http://www.w3.org/1999/xlink" viewBox="0 0 485 485" xml:space="preserve" width="64px" height="64px">
<g id="SVGRepo_bgCarrier" stroke-width="0"/>
<g id="SVGRepo_tracerCarrier" stroke-linecap="round" stroke-linejoin="round"/>
<g id="SVGRepo_iconCarrier"> <g> <rect x="379.458" y="335.263" width="30" height="64.737"/> <rect x="379.458" y="230.026" width="30" height="64.737"/> <rect x="75.542" y="335.263" width="30" height="64.737"/> <rect x="75.542" y="230.026" width="30" height="64.737"/> <path d="M394.458,93.929l-60.542,59.728V39.789h-36.125C291.251,16.848,270.1,0,245.088,0c-25.011,0-46.162,16.848-52.702,39.789 h-41.302v113.868L90.542,93.929L0,183.253V485h485V183.253L394.458,93.929z M220.299,69.789v-15 c0-13.669,11.12-24.789,24.789-24.789s24.79,11.12,24.79,24.789v15h34.038V455H181.084V69.789H220.299z M30,195.799l60.542-59.728 l60.542,59.728V455H30V195.799z M455,455H333.916V195.799l60.542-59.728L455,195.799V455z"/> <rect x="230.088" y="335.263" width="30" height="64.737"/> <rect x="230.088" y="230.026" width="30" height="64.737"/> <rect x="230.088" y="124.789" width="30" height="64.737"/> </g> </g>
</svg>